<?xml version="1.0" encoding="iso-8859-1"?>
<!-- Uploaded to: SVG Repo, www.svgrepo.com, Generator: SVG Repo Mixer Tools -->
<svg height="800px" width="800px" version="1.1" id="Layer_1" xmlns="http://www.w3.org/2000/svg" xmlns:xlink="http://www.w3.org/1999/xlink" 
	 viewBox="0 0 512 512" xml:space="preserve">
<path style="fill:#F4B2B0;" d="M419.404,485.132H92.595c-43.478,0-78.726-35.247-78.726-78.727l0,0
	c0-43.48,35.247-78.726,78.726-78.726h326.81c43.48,0,78.726,35.247,78.726,78.726l0,0
	C498.131,449.885,462.884,485.132,419.404,485.132z"/>
<g>
	<path style="fill:#B3404A;" d="M124.035,451.016c-24.599,0-44.612-20.013-44.612-44.612c0-24.599,20.013-44.612,44.612-44.612
		c7.658,0,13.869,6.209,13.869,13.869c0,7.66-6.21,13.869-13.869,13.869c-9.305,0-16.874,7.57-16.874,16.874
		s7.57,16.874,16.874,16.874c9.303,0,16.873-7.57,16.873-16.874c0-7.66,6.21-13.869,13.869-13.869
		c7.658,0,13.869,6.209,13.869,13.869C168.645,431.004,148.633,451.016,124.035,451.016z"/>
	<path style="fill:#B3404A;" d="M387.965,451.016c-24.598,0-44.61-20.013-44.61-44.612c0-24.599,20.013-44.612,44.61-44.612
		c7.658,0,13.869,6.209,13.869,13.869c0,7.66-6.21,13.869-13.869,13.869c-9.303,0-16.873,7.57-16.873,16.874
		s7.57,16.874,16.873,16.874c9.305,0,16.874-7.57,16.874-16.874c0-7.66,6.21-13.869,13.869-13.869
		c7.658,0,13.869,6.209,13.869,13.869C432.577,431.004,412.565,451.016,387.965,451.016z"/>
	<path style="fill:#B3404A;" d="M419.404,313.809h-39.097V97.383c40.072,6.638,70.73,41.538,70.73,83.463v67.939
		c0,7.66,6.21,13.869,13.869,13.869s13.869-6.209,13.869-13.869v-67.939c0-61.943-50.395-112.337-112.337-112.337
		c-7.658,0-13.869,6.209-13.869,13.869V313.81h-81.315V191h25.89c7.658,0,13.869-6.209,13.869-13.869s-6.21-13.869-13.869-13.869
		h-82.289c-7.658,0-13.869,6.209-13.869,13.869c0,7.66,6.21,13.869,13.869,13.869h28.661v122.81h-78.546V197.567
		c0-7.66-6.21-13.869-13.869-13.869h-10.324c-4.904,0-9.445,2.591-11.94,6.812c-3.048,5.159-8.434,8.238-14.407,8.238
		c-9.219,0-16.72-7.5-16.72-16.72c0-7.66-6.21-13.869-13.869-13.869s-13.869,6.209-13.869,13.869
		c0,24.514,19.943,44.458,44.458,44.458c8.131,0,16-2.263,22.802-6.331v93.656H92.596c-11.105,0-21.757,1.969-31.633,5.57V130.876
		c0-44.989,33.127-82.384,76.271-89.075v68.015c0,7.66,6.209,13.869,13.869,13.869c7.66,0,13.869-6.209,13.869-13.869l-0.001-82.949
		c0-7.686-6.289-13.876-13.976-13.869C86.046,13.057,33.225,65.914,33.225,130.876v204.541C12.934,352.417,0,377.926,0,406.405
		c0,51.056,41.538,92.596,92.596,92.596h326.808c51.056,0,92.596-41.538,92.596-92.596S470.462,313.809,419.404,313.809z
		 M419.404,471.263H92.596c-35.763,0-64.858-29.095-64.858-64.858s29.095-64.858,64.858-64.858h326.808
		c35.763,0,64.858,29.095,64.858,64.858S455.167,471.263,419.404,471.263z"/>
	<path style="fill:#B3404A;" d="M395.562,193.311v55.475c0,7.66,6.21,13.869,13.869,13.869c7.658,0,13.869-6.209,13.869-13.869
		v-55.475c0-7.66-6.21-13.869-13.869-13.869C401.773,179.442,395.562,185.651,395.562,193.311z"/>
</g>
</svg>